<mxfile host="Electron" modified="2023-11-23T15:09:10.222Z" agent="Mozilla/5.0 (Windows NT 10.0; Win64; x64) AppleWebKit/537.36 (KHTML, like Gecko) draw.io/22.1.2 Chrome/114.0.5735.289 Electron/25.9.4 Safari/537.36" etag="BaZXLArjDcsTNvwynOUA" version="22.1.2" type="device">
  <diagram name="Page-1" id="TkvCUza64TcwCMUFKEsN">
    <mxGraphModel dx="1418" dy="948" grid="1" gridSize="10" guides="1" tooltips="1" connect="1" arrows="1" fold="1" page="1" pageScale="1" pageWidth="1169" pageHeight="827" math="0" shadow="0">
      <root>
        <mxCell id="0" />
        <mxCell id="1" parent="0" />
        <mxCell id="3SWS5yT4R38GqUuvdAbD-1" value="uc Sytemkontext&amp;nbsp;ΩMEGA" style="shape=umlFrame;whiteSpace=wrap;html=1;pointerEvents=0;recursiveResize=0;container=1;collapsible=0;width=170;height=30;" vertex="1" parent="1">
          <mxGeometry x="40" y="40" width="320" height="320" as="geometry" />
        </mxCell>
        <mxCell id="3SWS5yT4R38GqUuvdAbD-2" value="uc Systemkontext FW-Module" style="shape=umlFrame;whiteSpace=wrap;html=1;pointerEvents=0;recursiveResize=0;container=1;collapsible=0;width=190;height=30;" vertex="1" parent="1">
          <mxGeometry x="480" y="40" width="320" height="320" as="geometry" />
        </mxCell>
        <mxCell id="3SWS5yT4R38GqUuvdAbD-3" value="«system»&lt;br&gt;&lt;b&gt;ΩMEGA&lt;/b&gt;" style="html=1;dropTarget=0;whiteSpace=wrap;" vertex="1" parent="1">
          <mxGeometry x="120" y="90" width="160" height="80" as="geometry" />
        </mxCell>
        <mxCell id="3SWS5yT4R38GqUuvdAbD-4" value="" style="shape=module;jettyWidth=8;jettyHeight=4;" vertex="1" parent="3SWS5yT4R38GqUuvdAbD-3">
          <mxGeometry x="1" width="20" height="20" relative="1" as="geometry">
            <mxPoint x="-27" y="7" as="offset" />
          </mxGeometry>
        </mxCell>
        <mxCell id="3SWS5yT4R38GqUuvdAbD-5" style="rounded=0;orthogonalLoop=1;jettySize=auto;html=1;endArrow=none;endFill=0;" edge="1" parent="1" source="3SWS5yT4R38GqUuvdAbD-7" target="3SWS5yT4R38GqUuvdAbD-3">
          <mxGeometry relative="1" as="geometry" />
        </mxCell>
        <mxCell id="3SWS5yT4R38GqUuvdAbD-6" value="&lt;font style=&quot;font-size: 13px;&quot;&gt;0 .. *&lt;/font&gt;" style="edgeLabel;html=1;align=center;verticalAlign=middle;resizable=0;points=[];" vertex="1" connectable="0" parent="3SWS5yT4R38GqUuvdAbD-5">
          <mxGeometry x="-0.4057" y="3" relative="1" as="geometry">
            <mxPoint x="-30" y="5" as="offset" />
          </mxGeometry>
        </mxCell>
        <mxCell id="3SWS5yT4R38GqUuvdAbD-7" value="FW-Module" style="verticalAlign=middle;align=center;shape=cube;size=10;direction=south;fontStyle=0;html=1;boundedLbl=1;spacingLeft=5;whiteSpace=wrap;container=0;" vertex="1" parent="1">
          <mxGeometry x="80" y="250" width="75" height="80" as="geometry" />
        </mxCell>
        <mxCell id="3SWS5yT4R38GqUuvdAbD-8" style="rounded=0;orthogonalLoop=1;jettySize=auto;html=1;endArrow=none;endFill=0;" edge="1" parent="1" source="3SWS5yT4R38GqUuvdAbD-10" target="3SWS5yT4R38GqUuvdAbD-3">
          <mxGeometry relative="1" as="geometry" />
        </mxCell>
        <mxCell id="3SWS5yT4R38GqUuvdAbD-9" value="2" style="edgeLabel;html=1;align=center;verticalAlign=middle;resizable=0;points=[];fontSize=13;" vertex="1" connectable="0" parent="3SWS5yT4R38GqUuvdAbD-8">
          <mxGeometry x="-0.5963" relative="1" as="geometry">
            <mxPoint x="20" y="-4" as="offset" />
          </mxGeometry>
        </mxCell>
        <mxCell id="3SWS5yT4R38GqUuvdAbD-10" value="Operating&lt;br&gt;System &lt;br&gt;(OS)" style="verticalAlign=middle;align=center;shape=cube;size=10;direction=south;fontStyle=0;html=1;boundedLbl=1;spacingLeft=5;whiteSpace=wrap;container=0;" vertex="1" parent="1">
          <mxGeometry x="240" y="250" width="75" height="80" as="geometry" />
        </mxCell>
        <mxCell id="3SWS5yT4R38GqUuvdAbD-11" value="&lt;b&gt;FW-Module&lt;/b&gt;" style="html=1;dropTarget=0;whiteSpace=wrap;" vertex="1" parent="1">
          <mxGeometry x="560" y="90" width="160" height="80" as="geometry" />
        </mxCell>
        <mxCell id="3SWS5yT4R38GqUuvdAbD-12" value="" style="shape=module;jettyWidth=8;jettyHeight=4;" vertex="1" parent="3SWS5yT4R38GqUuvdAbD-11">
          <mxGeometry x="1" width="20" height="20" relative="1" as="geometry">
            <mxPoint x="-27" y="7" as="offset" />
          </mxGeometry>
        </mxCell>
        <mxCell id="3SWS5yT4R38GqUuvdAbD-13" value="FW-Module" style="verticalAlign=middle;align=center;shape=cube;size=10;direction=south;fontStyle=0;html=1;boundedLbl=1;spacingLeft=5;whiteSpace=wrap;container=0;" vertex="1" parent="1">
          <mxGeometry x="602.5" y="230" width="75" height="80" as="geometry" />
        </mxCell>
        <mxCell id="3SWS5yT4R38GqUuvdAbD-14" style="rounded=0;orthogonalLoop=1;jettySize=auto;html=1;endArrow=none;endFill=0;" edge="1" parent="1" source="3SWS5yT4R38GqUuvdAbD-13" target="3SWS5yT4R38GqUuvdAbD-11">
          <mxGeometry relative="1" as="geometry">
            <mxPoint x="700" y="360" as="sourcePoint" />
            <mxPoint x="741" y="280" as="targetPoint" />
          </mxGeometry>
        </mxCell>
        <mxCell id="3SWS5yT4R38GqUuvdAbD-15" value="&lt;font style=&quot;font-size: 13px;&quot;&gt;0 .. *&lt;/font&gt;" style="edgeLabel;html=1;align=center;verticalAlign=middle;resizable=0;points=[];" vertex="1" connectable="0" parent="3SWS5yT4R38GqUuvdAbD-14">
          <mxGeometry x="-0.4057" y="3" relative="1" as="geometry">
            <mxPoint x="-30" y="5" as="offset" />
          </mxGeometry>
        </mxCell>
      </root>
    </mxGraphModel>
  </diagram>
</mxfile>
